<svg width="657" height="583" viewBox="0 0 657 583" fill="#28a9e0" xmlns="http://www.w3.org/2000/svg">
<path d="M358.974 581.19V196.69C488.998 -18.979 629.96 98.0981 652.974 196.69C675.988 295.282 573.034 457.262 358.974 581.19Z" fill="#28a9e0" stroke="#28a9e0"/>
<path fill-rule="evenodd" clip-rule="evenodd" d="M358.055 580.547C144.749 456.702 42.1905 295.111 65.1649 196.69C88.1679 98.1463 229.003 -18.8644 358.974 196.373C198.952 -125.776 29.2874 5.68058 4.22097 196.426C-20.8162 386.949 100.391 456.879 358.055 580.547Z" fill="#28a9e0"/>
<path d="M65.1649 196.69L64.678 196.576L64.678 196.576L65.1649 196.69ZM358.055 580.547L357.839 580.997L358.307 580.114L358.055 580.547ZM358.974 196.373L358.546 196.632L359.422 196.151L358.974 196.373ZM4.22097 196.426L3.72523 196.361L3.72523 196.361L4.22097 196.426ZM64.678 196.576C53.1423 245.995 73.1343 311.15 122.6 379.378C172.08 447.626 251.103 519.029 357.804 580.979L358.307 580.114C251.702 518.22 172.792 446.905 123.41 378.791C74.0131 310.658 54.2131 245.807 65.6519 196.804L64.678 196.576ZM359.402 196.115C326.881 142.259 293.653 109.139 261.713 91.3251C229.762 73.505 199.121 71.0131 171.826 78.381C117.277 93.106 76.2107 147.171 64.678 196.576L65.6519 196.804C77.1222 147.665 117.975 93.9532 172.087 79.3464C199.123 72.0483 229.497 74.5019 261.226 92.1985C292.966 109.901 326.082 142.869 358.546 196.632L359.402 196.115ZM359.422 196.151C319.398 115.578 278.749 63.3176 239.865 33.2559C200.971 3.18586 163.823 -4.68499 130.867 3.57935C97.9297 11.8392 69.2775 36.1922 47.3023 70.3745C25.3248 104.56 9.99982 148.614 3.72523 196.361L4.71671 196.491C10.9753 148.866 26.2582 104.958 48.1435 70.9152C70.0309 36.8696 98.4961 12.7281 131.111 4.54932C163.707 -3.62492 200.546 4.12156 239.254 34.0471C277.972 63.9811 318.539 116.095 358.526 196.596L359.422 196.151ZM3.72523 196.361C-2.54142 244.047 0.338815 284.221 12.237 319.59C24.1359 354.962 45.0427 385.496 74.7795 413.919C134.228 470.741 229.026 519.173 357.839 580.997L358.272 580.096C229.42 518.253 134.782 469.886 75.4704 413.196C45.827 384.862 25.0225 354.461 13.1848 319.272C1.34642 284.08 -1.53524 244.066 4.71671 196.491L3.72523 196.361Z" fill="#28a9e0"/>
</svg>
